<?xml version="1.0" encoding="utf-8"?>
<!-- Generator: Adobe Illustrator 16.0.0, SVG Export Plug-In . SVG Version: 6.00 Build 0)  -->
<!DOCTYPE svg PUBLIC "-//W3C//DTD SVG 1.1//EN" "http://www.w3.org/Graphics/SVG/1.1/DTD/svg11.dtd">
<svg version="1.1" id="Capa_1" xmlns="http://www.w3.org/2000/svg" xmlns:xlink="http://www.w3.org/1999/xlink" x="0px" y="0px"
	 width="512px" height="512px" viewBox="0 0 512 512" enable-background="new 0 0 512 512" xml:space="preserve">
<path fill="#A03738" d="M457,30.872H55c-30.327,0-55,24.673-55,55v264c0,30.327,24.673,55,55,55h129.514
	c1.581,0,3.084,0.759,4.023,2.032l47.253,64.063c4.734,6.421,12.025,10.124,20.004,10.161h0.12c7.932,0,15.209-3.632,19.979-9.977
	l48.325-64.284c0.938-1.25,2.434-1.996,3.997-1.996H457c30.326,0,55-24.673,55-55v-264C512,55.544,487.326,30.872,457,30.872
	L457,30.872z M482,349.872c0,2.362-0.337,4.646-0.951,6.812L326.944,221.596L482,92.918V349.872z M457,60.872
	c4.572,0,8.859,1.24,12.551,3.393L272.008,228.201c-9.252,7.678-22.679,7.678-31.931,0L42.499,64.236
	c3.68-2.135,7.948-3.364,12.501-3.364H457z M30.951,356.684c-0.615-2.166-0.951-4.451-0.951-6.812V92.848l155.098,128.711
	L30.951,356.684z M300.239,388.84l-44.291,58.917l-43.268-58.659c-6.568-8.908-17.099-14.227-28.167-14.227h-128.8L208.475,240.96
	l12.443,10.326c10.177,8.446,22.647,12.667,35.124,12.667c12.472,0,24.947-4.225,35.123-12.667l12.398-10.29l152.721,133.875
	H328.215C317.274,374.872,306.815,380.093,300.239,388.84L300.239,388.84z"/>
</svg>
