<?xml version="1.0" encoding="utf-8"?>
<!-- Generator: Adobe Illustrator 16.0.0, SVG Export Plug-In . SVG Version: 6.00 Build 0)  -->
<!DOCTYPE svg PUBLIC "-//W3C//DTD SVG 1.1//EN" "http://www.w3.org/Graphics/SVG/1.1/DTD/svg11.dtd">
<svg version="1.1" id="Capa_1" xmlns="http://www.w3.org/2000/svg" xmlns:xlink="http://www.w3.org/1999/xlink" x="0px" y="0px"
	 width="595.279px" height="841.891px" viewBox="0 0 595.279 841.891" enable-background="new 0 0 595.279 841.891"
	 xml:space="preserve">
<g>
	<g>
		<path fill="#A03738" d="M297.714,123.305h-0.148C133.454,123.305,0,256.796,0,420.945C0,486.054,20.984,546.4,56.663,595.399
			L19.57,705.973L133.975,669.4c47.064,31.178,103.207,49.185,163.739,49.185c164.111,0,297.565-133.528,297.565-297.64
			S461.825,123.305,297.714,123.305z M470.904,543.61c-7.181,20.276-35.68,37.093-58.412,42.004
			c-15.552,3.312-35.865,5.953-104.248-22.397c-87.469-36.237-143.797-125.12-148.188-130.887
			c-4.204-5.767-35.345-47.064-35.345-89.776s21.69-63.509,30.434-72.438c7.181-7.329,19.049-10.678,30.434-10.678
			c3.684,0,6.995,0.186,9.972,0.335c8.743,0.372,13.133,0.893,18.899,14.696c7.181,17.3,24.667,60.012,26.751,64.402
			c2.12,4.39,4.241,10.343,1.265,16.11c-2.79,5.953-5.246,8.594-9.636,13.654c-4.391,5.06-8.558,8.929-12.947,14.361
			c-4.019,4.725-8.558,9.785-3.498,18.528c5.061,8.557,22.547,37.093,48.292,60.012c33.225,29.577,60.161,39.027,69.797,43.046
			c7.181,2.977,15.737,2.27,20.983-3.312c6.66-7.181,14.882-19.086,23.253-30.806c5.953-8.408,13.469-9.45,21.356-6.474
			c8.036,2.79,50.562,23.812,59.305,28.164c8.743,4.391,14.51,6.474,16.63,10.157C478.084,505.996,478.084,523.296,470.904,543.61z"
			/>
	</g>
</g>
</svg>
