<?xml version="1.0" encoding="utf-8"?>
<!-- Generator: Adobe Illustrator 16.0.0, SVG Export Plug-In . SVG Version: 6.00 Build 0)  -->
<!DOCTYPE svg PUBLIC "-//W3C//DTD SVG 1.1//EN" "http://www.w3.org/Graphics/SVG/1.1/DTD/svg11.dtd">
<svg version="1.1" id="Capa_1" xmlns="http://www.w3.org/2000/svg" xmlns:xlink="http://www.w3.org/1999/xlink" x="0px" y="0px"
	 width="595.279px" height="841.891px" viewBox="0 0 595.279 841.891" enable-background="new 0 0 595.279 841.891"
	 xml:space="preserve">
<g>
	<g>
		<g>
			<g>
				<path fill="#A03738" d="M520.151,525.865c-4.954,10.576-7.709,15.284-12.511,23.455c-20.576-5.66-59.005-13.539-86.338-17.237
					c1.698-9.436,1.972-9.85,4.255-24.125l0.123-0.896l-13.501-44.824l-2.331,19.096c-1.953,16.152-4.566,32.578-7.671,48.146
					c-35.182-4.481-67.024-5.576-95.131-6.84v-23.983l-10.528-33.646c-10.473,39.994-8.482,26.662-8.746,57.496l-37.088,1.057
					c-22.87,1.104-44.004,3.01-59.921,5.038l-0.283-1.462c-2.953-15.181-5.416-30.862-7.303-46.59l-2.18-18.266l-13.86,42.947
					l0.142,0.962c1.707,10.917,2.623,15.672,4.358,25.04c-28.417,4.52-54.779,9.642-84.433,18.086
					c-4.293-7.171-7.793-13.482-12.521-23.455l-1.095-2.312H52.382l2.528,5.699c93.933,209.698,391.318,209.265,485.025-0.019
					l2.519-5.699h-21.2L520.151,525.865z M307.046,667.218V542.349c26.144,0.452,58.005,2.548,90.951,6.49
					c-8.888,36.976-23.106,76.327-37.022,110.161C341.539,664.198,324.803,666.34,307.046,667.218z M386.374,650.745
					c3-9.436,20.464-51.138,30.814-99.406c24.106,3.321,49.853,8.133,79.044,15.03C467.25,605.703,430.746,632.856,386.374,650.745z
					 M206.717,650.103c-42.844-17.614-78.866-44.23-108.218-83.95c21.652-5.944,50.675-12.087,77.168-15.879
					C183.281,584.776,193.885,617.487,206.717,650.103z M287.772,542.178v125.03c-18.464-0.943-36.069-3.142-57.128-9.086
					c-13.351-32.738-27.286-74.035-35.806-110.444C223.294,544.064,259.325,542.178,287.772,542.178z"/>
			</g>
			<g>
				<path fill="#A03738" d="M555.824,360.057c-28.438-120.407-134.701-204.528-258.4-204.528
					c-122.729,0-228.794,83.3-257.957,202.556l-0.227,1l11.804,45.438l2.925-19.568c5.322-35.606,17.577-67.431,36.306-96.782
					c21.379,5.548,50.023,11.397,75.894,15.304c-2.604,18.03-4.104,35.154-5.322,52.298h19.247
					c1.113-15.851,2.802-34.183,5.075-49.59c34.089,4.67,68.789,7.02,102.595,7.727v41.872h19.294v-41.721
					c33.55-0.198,68.194-2.18,101.065-6.604c2.123,14.945,3.537,29.635,4.632,44.569l0.245,3.746h19.256l-0.302-4.321
					c-1.396-19.719-3.425-37.371-4.85-46.806c23.115-3.529,55.062-10.293,77.31-16.69c18.719,29.871,31.286,61.373,36.599,97.943
					l2.707,18.709l12.359-43.495L555.824,360.057z M492.686,271.275c-23.153,6.104-48.335,11.17-68.534,14.189
					c-6.001-33.022-10.218-52.693-20.663-86.583C437.766,215.931,465.647,237.094,492.686,271.275z M405.113,288.154
					c-32.361,4.18-67.186,6.218-98.065,6.218V175.041c24.898,1.038,48.674,5.52,72.007,13.766l0.698,0.235l0.235,0.688
					C390.686,218.894,400.423,258.822,405.113,288.154z M189.31,199.911c-7.66,24.747-13.746,48.23-20.105,84.14
					c-22.992-3.547-44.4-7.519-66.979-12.859C127.926,238.292,155.891,216.988,189.31,199.911z M213.122,189.712
					c21.701-8.104,47.269-13.52,74.648-14.662v119.171c-37.692-0.962-66.515-3.227-99.537-7.473
					C193.999,253.953,201.934,220.629,213.122,189.712z"/>
			</g>
		</g>
		<g>
			<path fill="#A03738" d="M82.272,440.848c4.575-14.059,8.651-27.588,11.888-43.297h0.566c3.227,15.417,7.011,28.427,11.614,43.043
				l20.021,62.496h21.644l42.221-130.956h-23.54l-18.672,65.733c-4.34,15.444-7.84,29.248-10.029,42.503h-0.793
				c-2.962-13.256-6.765-27.059-11.613-42.729l-20.332-65.497H85.244l-21.408,66.827c-4.313,14.077-8.652,28.134-11.614,41.399
				h-0.839c-2.406-13.539-5.944-27.059-9.728-41.664l-17.313-66.572H0L39.494,503.09h21.652L82.272,440.848z"/>
		</g>
		<g>
			<path fill="#A03738" d="M340.511,480.352H339.7c-2.963-13.247-6.765-27.059-11.634-42.729l-20.313-65.497H287.78l-21.398,66.827
				c-4.321,14.077-8.68,28.145-11.643,41.399h-0.802c-2.425-13.539-5.954-27.059-9.747-41.674l-17.341-66.553h-24.352
				l39.513,130.956h21.644l21.106-62.241c4.604-14.059,8.68-27.588,11.926-43.297h0.519c3.265,15.416,7.058,28.427,11.644,43.042
				l19.982,62.497h21.681l42.23-130.956h-23.559l-18.671,65.732C346.192,453.293,342.682,467.104,340.511,480.352z"/>
		</g>
		<g>
			<path fill="#A03738" d="M571.694,372.125l-18.671,65.732c-4.35,15.444-7.85,29.249-10.001,42.504h-0.812
				c-2.962-13.257-6.755-27.06-11.643-42.73l-20.295-65.497h-19.992l-21.388,66.827c-4.321,14.077-8.671,28.135-11.634,41.4h-0.83
				c-2.415-13.538-5.953-27.06-9.737-41.665l-17.313-66.562h-24.333l39.476,130.956h21.662l21.105-62.241
				c4.586-14.059,8.661-27.588,11.927-43.296h0.547c3.245,15.416,7.029,28.426,11.623,43.051l19.992,62.487h21.652l42.249-130.956
				L571.694,372.125L571.694,372.125z"/>
		</g>
	</g>
</g>
</svg>
